<mxfile host="app.diagrams.net" modified="2023-05-29T08:47:41.415Z" agent="Mozilla/5.0 (Windows NT 10.0; Win64; x64) AppleWebKit/537.36 (KHTML, like Gecko) Chrome/113.0.0.0 Safari/537.36" etag="BwPs0xzBnr0qGsvtBlUC" version="21.3.5" type="github">
  <diagram id="C5RBs43oDa-KdzZeNtuy" name="Page-1">
    <mxGraphModel dx="1507" dy="563" grid="1" gridSize="10" guides="1" tooltips="1" connect="1" arrows="1" fold="1" page="1" pageScale="1" pageWidth="827" pageHeight="1169" math="0" shadow="0">
      <root>
        <mxCell id="WIyWlLk6GJQsqaUBKTNV-0" />
        <mxCell id="WIyWlLk6GJQsqaUBKTNV-1" parent="WIyWlLk6GJQsqaUBKTNV-0" />
        <mxCell id="-9mfFbaqVIp6HsgHIrBN-1" value="" style="rounded=0;whiteSpace=wrap;html=1;" vertex="1" parent="WIyWlLk6GJQsqaUBKTNV-1">
          <mxGeometry x="17" y="60" width="713" height="424" as="geometry" />
        </mxCell>
        <mxCell id="-9mfFbaqVIp6HsgHIrBN-14" value="클래스A" style="swimlane;fontStyle=0;childLayout=stackLayout;horizontal=1;startSize=26;fillColor=none;horizontalStack=0;resizeParent=1;resizeParentMax=0;resizeLast=0;collapsible=1;marginBottom=0;whiteSpace=wrap;html=1;" vertex="1" parent="WIyWlLk6GJQsqaUBKTNV-1">
          <mxGeometry x="49.999999999999986" y="130.00000000000003" width="100" height="104" as="geometry" />
        </mxCell>
        <mxCell id="-9mfFbaqVIp6HsgHIrBN-15" value="- 속성 A1&lt;br&gt;- 속성 A2" style="text;strokeColor=none;fillColor=none;align=left;verticalAlign=top;spacingLeft=4;spacingRight=4;overflow=hidden;rotatable=0;points=[[0,0.5],[1,0.5]];portConstraint=eastwest;whiteSpace=wrap;html=1;" vertex="1" parent="-9mfFbaqVIp6HsgHIrBN-14">
          <mxGeometry y="26" width="100" height="38" as="geometry" />
        </mxCell>
        <mxCell id="-9mfFbaqVIp6HsgHIrBN-16" value="+ 조작 A1 ()&lt;br&gt;+ 조작 A2 ()" style="text;strokeColor=default;fillColor=none;align=left;verticalAlign=top;spacingLeft=4;spacingRight=4;overflow=hidden;rotatable=0;points=[[0,0.5],[1,0.5]];portConstraint=eastwest;whiteSpace=wrap;html=1;" vertex="1" parent="-9mfFbaqVIp6HsgHIrBN-14">
          <mxGeometry y="64" width="100" height="40" as="geometry" />
        </mxCell>
        <mxCell id="-9mfFbaqVIp6HsgHIrBN-44" value="클래스B" style="swimlane;fontStyle=0;childLayout=stackLayout;horizontal=1;startSize=26;fillColor=none;horizontalStack=0;resizeParent=1;resizeParentMax=0;resizeLast=0;collapsible=1;marginBottom=0;whiteSpace=wrap;html=1;" vertex="1" parent="WIyWlLk6GJQsqaUBKTNV-1">
          <mxGeometry x="220" y="130.00000000000003" width="100" height="64" as="geometry" />
        </mxCell>
        <mxCell id="-9mfFbaqVIp6HsgHIrBN-45" value="+ 조작 B1 ()&lt;br&gt;+ 조작 I ()" style="text;strokeColor=none;fillColor=none;align=left;verticalAlign=top;spacingLeft=4;spacingRight=4;overflow=hidden;rotatable=0;points=[[0,0.5],[1,0.5]];portConstraint=eastwest;whiteSpace=wrap;html=1;" vertex="1" parent="-9mfFbaqVIp6HsgHIrBN-44">
          <mxGeometry y="26" width="100" height="38" as="geometry" />
        </mxCell>
        <mxCell id="-9mfFbaqVIp6HsgHIrBN-47" value="&amp;lt;&amp;lt;interface&amp;gt;&amp;gt;&lt;br&gt;인터페이스 A" style="swimlane;fontStyle=0;childLayout=stackLayout;horizontal=1;startSize=52;fillColor=none;horizontalStack=0;resizeParent=1;resizeParentMax=0;resizeLast=0;collapsible=1;marginBottom=0;whiteSpace=wrap;html=1;" vertex="1" parent="WIyWlLk6GJQsqaUBKTNV-1">
          <mxGeometry x="499" y="129" width="140" height="78" as="geometry" />
        </mxCell>
        <mxCell id="-9mfFbaqVIp6HsgHIrBN-51" value="+ 조작 I ()" style="text;strokeColor=default;fillColor=none;align=left;verticalAlign=top;spacingLeft=4;spacingRight=4;overflow=hidden;rotatable=0;points=[[0,0.5],[1,0.5]];portConstraint=eastwest;whiteSpace=wrap;html=1;" vertex="1" parent="-9mfFbaqVIp6HsgHIrBN-47">
          <mxGeometry y="52" width="140" height="26" as="geometry" />
        </mxCell>
        <mxCell id="-9mfFbaqVIp6HsgHIrBN-53" value="" style="endArrow=none;html=1;rounded=0;strokeWidth=0.5;" edge="1" parent="WIyWlLk6GJQsqaUBKTNV-1">
          <mxGeometry width="50" height="50" relative="1" as="geometry">
            <mxPoint x="499" y="172" as="sourcePoint" />
            <mxPoint x="639" y="172" as="targetPoint" />
          </mxGeometry>
        </mxCell>
        <mxCell id="-9mfFbaqVIp6HsgHIrBN-69" style="edgeStyle=orthogonalEdgeStyle;rounded=0;orthogonalLoop=1;jettySize=auto;html=1;exitX=0.5;exitY=0;exitDx=0;exitDy=0;entryX=0.498;entryY=1.026;entryDx=0;entryDy=0;entryPerimeter=0;dashed=1;endArrow=block;endFill=0;endSize=10;" edge="1" parent="WIyWlLk6GJQsqaUBKTNV-1" source="-9mfFbaqVIp6HsgHIrBN-54" target="-9mfFbaqVIp6HsgHIrBN-51">
          <mxGeometry relative="1" as="geometry" />
        </mxCell>
        <mxCell id="-9mfFbaqVIp6HsgHIrBN-54" value="클래스F" style="swimlane;fontStyle=0;childLayout=stackLayout;horizontal=1;startSize=26;fillColor=none;horizontalStack=0;resizeParent=1;resizeParentMax=0;resizeLast=0;collapsible=1;marginBottom=0;whiteSpace=wrap;html=1;" vertex="1" parent="WIyWlLk6GJQsqaUBKTNV-1">
          <mxGeometry x="519" y="259" width="100" height="50" as="geometry" />
        </mxCell>
        <mxCell id="-9mfFbaqVIp6HsgHIrBN-55" value="+ 조작 I ()" style="text;strokeColor=none;fillColor=none;align=left;verticalAlign=top;spacingLeft=4;spacingRight=4;overflow=hidden;rotatable=0;points=[[0,0.5],[1,0.5]];portConstraint=eastwest;whiteSpace=wrap;html=1;" vertex="1" parent="-9mfFbaqVIp6HsgHIrBN-54">
          <mxGeometry y="26" width="100" height="24" as="geometry" />
        </mxCell>
        <mxCell id="-9mfFbaqVIp6HsgHIrBN-70" style="edgeStyle=orthogonalEdgeStyle;rounded=0;orthogonalLoop=1;jettySize=auto;html=1;exitX=0.5;exitY=0;exitDx=0;exitDy=0;entryX=0.48;entryY=1.006;entryDx=0;entryDy=0;entryPerimeter=0;endArrow=block;endFill=0;endSize=10;" edge="1" parent="WIyWlLk6GJQsqaUBKTNV-1" source="-9mfFbaqVIp6HsgHIrBN-60" target="-9mfFbaqVIp6HsgHIrBN-45">
          <mxGeometry relative="1" as="geometry" />
        </mxCell>
        <mxCell id="-9mfFbaqVIp6HsgHIrBN-60" value="클래스C" style="swimlane;fontStyle=0;childLayout=stackLayout;horizontal=1;startSize=26;fillColor=none;horizontalStack=0;resizeParent=1;resizeParentMax=0;resizeLast=0;collapsible=1;marginBottom=0;whiteSpace=wrap;html=1;" vertex="1" parent="WIyWlLk6GJQsqaUBKTNV-1">
          <mxGeometry x="160" y="273" width="100" height="24" as="geometry" />
        </mxCell>
        <mxCell id="-9mfFbaqVIp6HsgHIrBN-71" style="edgeStyle=orthogonalEdgeStyle;rounded=0;orthogonalLoop=1;jettySize=auto;html=1;exitX=0.5;exitY=0;exitDx=0;exitDy=0;entryX=0.48;entryY=0.977;entryDx=0;entryDy=0;entryPerimeter=0;endArrow=block;endFill=0;endSize=10;" edge="1" parent="WIyWlLk6GJQsqaUBKTNV-1" source="-9mfFbaqVIp6HsgHIrBN-62" target="-9mfFbaqVIp6HsgHIrBN-45">
          <mxGeometry relative="1" as="geometry" />
        </mxCell>
        <mxCell id="-9mfFbaqVIp6HsgHIrBN-62" value="클래스D" style="swimlane;fontStyle=0;childLayout=stackLayout;horizontal=1;startSize=26;fillColor=none;horizontalStack=0;resizeParent=1;resizeParentMax=0;resizeLast=0;collapsible=1;marginBottom=0;whiteSpace=wrap;html=1;" vertex="1" parent="WIyWlLk6GJQsqaUBKTNV-1">
          <mxGeometry x="280" y="273" width="100" height="24" as="geometry" />
        </mxCell>
        <mxCell id="-9mfFbaqVIp6HsgHIrBN-72" value="&lt;b style=&quot;border-color: var(--border-color);&quot;&gt;&lt;font style=&quot;border-color: var(--border-color); font-size: 19px;&quot;&gt;*&lt;/font&gt;&lt;/b&gt;" style="edgeStyle=orthogonalEdgeStyle;rounded=0;orthogonalLoop=1;jettySize=auto;html=1;exitX=0.5;exitY=0;exitDx=0;exitDy=0;entryX=0.25;entryY=1;entryDx=0;entryDy=0;endArrow=diamondThin;endFill=0;endSize=20;startSize=1;labelPosition=left;verticalLabelPosition=bottom;align=right;verticalAlign=top;" edge="1" parent="WIyWlLk6GJQsqaUBKTNV-1" source="-9mfFbaqVIp6HsgHIrBN-63" target="-9mfFbaqVIp6HsgHIrBN-54">
          <mxGeometry x="-0.4286" y="4" relative="1" as="geometry">
            <mxPoint x="-4" y="3" as="offset" />
          </mxGeometry>
        </mxCell>
        <mxCell id="-9mfFbaqVIp6HsgHIrBN-63" value="클래스G" style="swimlane;fontStyle=0;childLayout=stackLayout;horizontal=1;startSize=26;fillColor=none;horizontalStack=0;resizeParent=1;resizeParentMax=0;resizeLast=0;collapsible=1;marginBottom=0;whiteSpace=wrap;html=1;" vertex="1" parent="WIyWlLk6GJQsqaUBKTNV-1">
          <mxGeometry x="459" y="379" width="100" height="24" as="geometry" />
        </mxCell>
        <mxCell id="-9mfFbaqVIp6HsgHIrBN-73" value="4" style="edgeStyle=orthogonalEdgeStyle;rounded=0;orthogonalLoop=1;jettySize=auto;html=1;exitX=0.5;exitY=0;exitDx=0;exitDy=0;entryX=0.75;entryY=1;entryDx=0;entryDy=0;endArrow=diamondThin;endFill=1;endSize=20;startSize=27;fontSize=13;fontStyle=0" edge="1" parent="WIyWlLk6GJQsqaUBKTNV-1" source="-9mfFbaqVIp6HsgHIrBN-64" target="-9mfFbaqVIp6HsgHIrBN-54">
          <mxGeometry x="-0.6952" y="-12" relative="1" as="geometry">
            <mxPoint as="offset" />
          </mxGeometry>
        </mxCell>
        <mxCell id="-9mfFbaqVIp6HsgHIrBN-64" value="클래스H" style="swimlane;fontStyle=0;childLayout=stackLayout;horizontal=1;startSize=26;fillColor=none;horizontalStack=0;resizeParent=1;resizeParentMax=0;resizeLast=0;collapsible=1;marginBottom=0;whiteSpace=wrap;html=1;" vertex="1" parent="WIyWlLk6GJQsqaUBKTNV-1">
          <mxGeometry x="579" y="379" width="100" height="24" as="geometry" />
        </mxCell>
        <mxCell id="-9mfFbaqVIp6HsgHIrBN-65" style="edgeStyle=orthogonalEdgeStyle;rounded=0;orthogonalLoop=1;jettySize=auto;html=1;exitX=1;exitY=0.5;exitDx=0;exitDy=0;entryX=0;entryY=0.5;entryDx=0;entryDy=0;dashed=1;endArrow=open;endFill=0;" edge="1" parent="WIyWlLk6GJQsqaUBKTNV-1" source="-9mfFbaqVIp6HsgHIrBN-15" target="-9mfFbaqVIp6HsgHIrBN-45">
          <mxGeometry relative="1" as="geometry" />
        </mxCell>
        <mxCell id="-9mfFbaqVIp6HsgHIrBN-66" style="edgeStyle=orthogonalEdgeStyle;rounded=0;orthogonalLoop=1;jettySize=auto;html=1;exitX=1;exitY=0.5;exitDx=0;exitDy=0;entryX=0.002;entryY=0.581;entryDx=0;entryDy=0;entryPerimeter=0;dashed=1;endArrow=block;endFill=0;endSize=10;" edge="1" parent="WIyWlLk6GJQsqaUBKTNV-1" source="-9mfFbaqVIp6HsgHIrBN-45" target="-9mfFbaqVIp6HsgHIrBN-47">
          <mxGeometry relative="1" as="geometry" />
        </mxCell>
        <mxCell id="-9mfFbaqVIp6HsgHIrBN-75" style="edgeStyle=orthogonalEdgeStyle;rounded=0;orthogonalLoop=1;jettySize=auto;html=1;exitX=0.5;exitY=1;exitDx=0;exitDy=0;endArrow=open;endFill=0;dashed=1;dashPattern=1 2;endSize=4;" edge="1" parent="WIyWlLk6GJQsqaUBKTNV-1" source="-9mfFbaqVIp6HsgHIrBN-74">
          <mxGeometry relative="1" as="geometry">
            <mxPoint x="182.44442749023438" y="174.77776082356775" as="targetPoint" />
          </mxGeometry>
        </mxCell>
        <mxCell id="-9mfFbaqVIp6HsgHIrBN-74" value="의존" style="rounded=1;whiteSpace=wrap;html=1;arcSize=50;fillColor=#f5f5f5;fontColor=#333333;strokeColor=#666666;fontSize=10;" vertex="1" parent="WIyWlLk6GJQsqaUBKTNV-1">
          <mxGeometry x="153" y="80" width="60" height="20" as="geometry" />
        </mxCell>
        <mxCell id="-9mfFbaqVIp6HsgHIrBN-85" style="edgeStyle=orthogonalEdgeStyle;rounded=0;orthogonalLoop=1;jettySize=auto;html=1;exitX=0.5;exitY=0;exitDx=0;exitDy=0;entryX=0.441;entryY=1.075;entryDx=0;entryDy=0;entryPerimeter=0;endArrow=open;endFill=0;dashed=1;dashPattern=1 2;endSize=4;" edge="1" parent="WIyWlLk6GJQsqaUBKTNV-1" source="-9mfFbaqVIp6HsgHIrBN-76" target="-9mfFbaqVIp6HsgHIrBN-16">
          <mxGeometry relative="1" as="geometry" />
        </mxCell>
        <mxCell id="-9mfFbaqVIp6HsgHIrBN-76" value="클래스" style="rounded=1;whiteSpace=wrap;html=1;arcSize=50;fillColor=#f5f5f5;fontColor=#333333;strokeColor=#666666;fontSize=10;" vertex="1" parent="WIyWlLk6GJQsqaUBKTNV-1">
          <mxGeometry x="63" y="270" width="60" height="20" as="geometry" />
        </mxCell>
        <mxCell id="-9mfFbaqVIp6HsgHIrBN-87" style="edgeStyle=orthogonalEdgeStyle;rounded=0;orthogonalLoop=1;jettySize=auto;html=1;exitX=1;exitY=0.5;exitDx=0;exitDy=0;endArrow=open;endFill=0;dashed=1;dashPattern=1 2;endSize=4;" edge="1" parent="WIyWlLk6GJQsqaUBKTNV-1" source="-9mfFbaqVIp6HsgHIrBN-77">
          <mxGeometry relative="1" as="geometry">
            <mxPoint x="270.0000000000002" y="213.66666666666674" as="targetPoint" />
          </mxGeometry>
        </mxCell>
        <mxCell id="-9mfFbaqVIp6HsgHIrBN-77" value="범화" style="rounded=1;whiteSpace=wrap;html=1;arcSize=50;fillColor=#f5f5f5;fontColor=#333333;strokeColor=#666666;fontSize=10;" vertex="1" parent="WIyWlLk6GJQsqaUBKTNV-1">
          <mxGeometry x="162" y="204" width="60" height="20" as="geometry" />
        </mxCell>
        <mxCell id="-9mfFbaqVIp6HsgHIrBN-88" style="edgeStyle=orthogonalEdgeStyle;rounded=0;orthogonalLoop=1;jettySize=auto;html=1;exitX=0.5;exitY=0;exitDx=0;exitDy=0;endArrow=open;endFill=0;dashed=1;dashPattern=1 2;endSize=4;" edge="1" parent="WIyWlLk6GJQsqaUBKTNV-1" source="-9mfFbaqVIp6HsgHIrBN-78">
          <mxGeometry relative="1" as="geometry">
            <mxPoint x="404.22218831380223" y="173.2222137451172" as="targetPoint" />
          </mxGeometry>
        </mxCell>
        <mxCell id="-9mfFbaqVIp6HsgHIrBN-78" value="인터페이스 실현" style="rounded=1;whiteSpace=wrap;html=1;arcSize=50;fillColor=#f5f5f5;fontColor=#333333;strokeColor=#666666;fontSize=10;" vertex="1" parent="WIyWlLk6GJQsqaUBKTNV-1">
          <mxGeometry x="352" y="207" width="107" height="20" as="geometry" />
        </mxCell>
        <mxCell id="-9mfFbaqVIp6HsgHIrBN-92" style="edgeStyle=orthogonalEdgeStyle;rounded=0;orthogonalLoop=1;jettySize=auto;html=1;exitX=1;exitY=0.5;exitDx=0;exitDy=0;endArrow=open;endFill=0;dashed=1;dashPattern=1 2;endSize=4;" edge="1" parent="WIyWlLk6GJQsqaUBKTNV-1" source="-9mfFbaqVIp6HsgHIrBN-79">
          <mxGeometry relative="1" as="geometry">
            <mxPoint x="532.4444783528647" y="328.66666666666674" as="targetPoint" />
          </mxGeometry>
        </mxCell>
        <mxCell id="-9mfFbaqVIp6HsgHIrBN-79" value="집약" style="rounded=1;whiteSpace=wrap;html=1;arcSize=50;fillColor=#f5f5f5;fontColor=#333333;strokeColor=#666666;fontSize=10;" vertex="1" parent="WIyWlLk6GJQsqaUBKTNV-1">
          <mxGeometry x="399" y="319" width="60" height="20" as="geometry" />
        </mxCell>
        <mxCell id="-9mfFbaqVIp6HsgHIrBN-93" style="edgeStyle=orthogonalEdgeStyle;rounded=0;orthogonalLoop=1;jettySize=auto;html=1;exitX=0;exitY=0.5;exitDx=0;exitDy=0;endArrow=open;endFill=0;dashed=1;dashPattern=1 2;endSize=4;" edge="1" parent="WIyWlLk6GJQsqaUBKTNV-1" source="-9mfFbaqVIp6HsgHIrBN-80">
          <mxGeometry relative="1" as="geometry">
            <mxPoint x="602.4444783528647" y="328.1110941569011" as="targetPoint" />
          </mxGeometry>
        </mxCell>
        <mxCell id="-9mfFbaqVIp6HsgHIrBN-80" value="컴포지션" style="rounded=1;whiteSpace=wrap;html=1;arcSize=50;fillColor=#f5f5f5;fontColor=#333333;strokeColor=#666666;fontSize=10;" vertex="1" parent="WIyWlLk6GJQsqaUBKTNV-1">
          <mxGeometry x="639" y="319" width="70" height="20" as="geometry" />
        </mxCell>
        <mxCell id="-9mfFbaqVIp6HsgHIrBN-89" style="rounded=0;orthogonalLoop=1;jettySize=auto;html=1;exitX=0;exitY=0.75;exitDx=0;exitDy=0;entryX=0.592;entryY=0.01;entryDx=0;entryDy=0;entryPerimeter=0;endArrow=open;endFill=0;dashed=1;dashPattern=1 2;endSize=4;" edge="1" parent="WIyWlLk6GJQsqaUBKTNV-1" source="-9mfFbaqVIp6HsgHIrBN-81" target="-9mfFbaqVIp6HsgHIrBN-47">
          <mxGeometry relative="1" as="geometry" />
        </mxCell>
        <mxCell id="-9mfFbaqVIp6HsgHIrBN-81" value="인터페이스&lt;br style=&quot;font-size: 10px;&quot;&gt;" style="rounded=1;whiteSpace=wrap;html=1;arcSize=50;fillColor=#f5f5f5;fontColor=#333333;strokeColor=#666666;fontSize=10;" vertex="1" parent="WIyWlLk6GJQsqaUBKTNV-1">
          <mxGeometry x="609" y="89" width="90" height="20" as="geometry" />
        </mxCell>
        <mxCell id="-9mfFbaqVIp6HsgHIrBN-82" value="*" style="edgeStyle=orthogonalEdgeStyle;rounded=0;orthogonalLoop=1;jettySize=auto;html=1;exitX=0;exitY=0.5;exitDx=0;exitDy=0;entryX=0.5;entryY=1;entryDx=0;entryDy=0;endArrow=none;endFill=0;fontSize=19;fontStyle=1" edge="1" parent="WIyWlLk6GJQsqaUBKTNV-1" source="-9mfFbaqVIp6HsgHIrBN-63" target="-9mfFbaqVIp6HsgHIrBN-63">
          <mxGeometry x="0.7606" y="-11" relative="1" as="geometry">
            <mxPoint as="offset" />
          </mxGeometry>
        </mxCell>
        <mxCell id="-9mfFbaqVIp6HsgHIrBN-91" style="edgeStyle=orthogonalEdgeStyle;rounded=0;orthogonalLoop=1;jettySize=auto;html=1;exitX=1;exitY=0.5;exitDx=0;exitDy=0;endArrow=open;endFill=0;dashed=1;dashPattern=1 2;endSize=4;" edge="1" parent="WIyWlLk6GJQsqaUBKTNV-1" source="-9mfFbaqVIp6HsgHIrBN-83">
          <mxGeometry relative="1" as="geometry">
            <mxPoint x="420" y="393" as="targetPoint" />
          </mxGeometry>
        </mxCell>
        <mxCell id="-9mfFbaqVIp6HsgHIrBN-83" value="다중도" style="rounded=1;whiteSpace=wrap;html=1;arcSize=50;fillColor=#f5f5f5;fontColor=#333333;strokeColor=#666666;fontSize=10;" vertex="1" parent="WIyWlLk6GJQsqaUBKTNV-1">
          <mxGeometry x="315.5" y="383" width="60" height="20" as="geometry" />
        </mxCell>
        <mxCell id="-9mfFbaqVIp6HsgHIrBN-90" style="rounded=0;orthogonalLoop=1;jettySize=auto;html=1;exitX=1;exitY=0.5;exitDx=0;exitDy=0;endArrow=open;endFill=0;dashed=1;dashPattern=1 2;endSize=4;" edge="1" parent="WIyWlLk6GJQsqaUBKTNV-1" source="-9mfFbaqVIp6HsgHIrBN-84">
          <mxGeometry relative="1" as="geometry">
            <mxPoint x="464.11114501953125" y="422.5555725097656" as="targetPoint" />
          </mxGeometry>
        </mxCell>
        <mxCell id="-9mfFbaqVIp6HsgHIrBN-84" value="재귀관련" style="rounded=1;whiteSpace=wrap;html=1;arcSize=50;fillColor=#f5f5f5;fontColor=#333333;strokeColor=#666666;fontSize=10;" vertex="1" parent="WIyWlLk6GJQsqaUBKTNV-1">
          <mxGeometry x="375.5" y="439" width="60" height="20" as="geometry" />
        </mxCell>
        <mxCell id="-9mfFbaqVIp6HsgHIrBN-96" value="1" style="text;html=1;strokeColor=none;fillColor=none;align=center;verticalAlign=middle;whiteSpace=wrap;rounded=0;fontSize=13;" vertex="1" parent="WIyWlLk6GJQsqaUBKTNV-1">
          <mxGeometry x="399" y="378" width="60" height="30" as="geometry" />
        </mxCell>
        <mxCell id="-9mfFbaqVIp6HsgHIrBN-97" value="1" style="text;html=1;strokeColor=none;fillColor=none;align=center;verticalAlign=middle;whiteSpace=wrap;rounded=0;fontSize=13;" vertex="1" parent="WIyWlLk6GJQsqaUBKTNV-1">
          <mxGeometry x="497" y="304" width="60" height="30" as="geometry" />
        </mxCell>
        <mxCell id="-9mfFbaqVIp6HsgHIrBN-98" value="1" style="text;html=1;strokeColor=none;fillColor=none;align=center;verticalAlign=middle;whiteSpace=wrap;rounded=0;fontSize=13;" vertex="1" parent="WIyWlLk6GJQsqaUBKTNV-1">
          <mxGeometry x="582" y="303" width="60" height="30" as="geometry" />
        </mxCell>
      </root>
    </mxGraphModel>
  </diagram>
</mxfile>
